<?xml version="1.0" encoding="utf-8"?>
<!-- Generator: Adobe Illustrator 27.2.0, SVG Export Plug-In . SVG Version: 6.00 Build 0)  -->
<svg version="1.1" id="Layer_1" xmlns="http://www.w3.org/2000/svg" xmlns:xlink="http://www.w3.org/1999/xlink" x="0px" y="0px"
	 viewBox="0 0 773 185" style="enable-background:new 0 0 773 185;" xml:space="preserve">
<style type="text/css">
	.st0{opacity:0.2;}
	.st1{fill-rule:evenodd;clip-rule:evenodd;}
</style>
<g id="The-Wine-Vault-Website">
	<g id="Desktop-HD-_x2013_-Homepage-v2" transform="translate(-296.000000, -90.000000)">
		<g id="HEADER" transform="translate(-57.000000, 53.000000)">
			<g id="Group" transform="translate(330.000000, 0.000000)">
				<path id="Group-3" transform="translate(49.000000, 141.000000)" class="st0" d="M48.5,27.9l12.1,50.5H36.5L48.5,27.9z
					 M175.2,28.3l30.2,50.1h-30.2V28.3z M444.8,63.6h28.1l4.9,14.8H440L444.8,63.6z M458.8,20.9l9.5,28.8h-18.9L458.8,20.9z
					 M709,13.8V0h-24.1h-17.1H644v13.8h23.8v64.5h-27.2V65.6h-34.4V0h-17.1v78.4H548c1-0.3,1.9-0.7,2.8-1.1
					c4.6-2.1,8.2-5.3,10.8-9.5s3.9-9.4,3.9-15.5V0h-17.2v52.2c0,3.4-0.5,6.2-1.6,8.3c-1,2.1-2.6,3.7-4.5,4.7c-2,1-4.4,1.5-7.3,1.5
					c-2.8,0-5.3-0.5-7.3-1.5s-3.6-2.6-4.6-4.7s-1.6-4.9-1.6-8.3V0h-17.2v52.2c0,6.1,1.3,11.3,3.9,15.5s6.2,7.4,10.8,9.5
					c0.9,0.4,1.9,0.8,2.8,1.1h-26L466.7,0h-4.3h-7.3h-4.2l-29.1,78.4h-23.5l27-78.4h-19l-17.4,58.8L371.6,0h-19l27,78.4h-78.7V65.6
					h-36.4V45.2h30.9V31.9h-30.9v-18h36.3V0h-36.3H259h-11.7v78.4H223V0h-17v51.1L175.2,0H158v78.4h-25.3V0h-17.1v78.4H78.4L95.6,0
					h-17L68.3,55L55.8,0h-5.3h-3.8h-5.4L28.9,55L18.6,0H1.5l17.2,78.4H0V81h707.9v-2.6h-23V13.8H709z"/>
				<path class="st1" d="M135.5,145.9l12.1,50.3h-24L135.5,145.9z M262.2,146.2l30.1,49.9h-30.1V146.2z M531.8,181.5h28.1l4.8,14.7
					H527L531.8,181.5z M545.8,138.9l9.5,28.7h-18.9L545.8,138.9z M796,131.8V118h-24.1h-17.1H731v13.8h20.7l-23.9,15
					c-1-0.6-2.3-0.7-3.4,0c-1.5,0.9-2,2.9-1,4.4c0.9,1.5,2.9,2,4.4,1c1.1-0.7,1.6-1.9,1.5-3.1l25.4-16v62.8h-27.2v-12.4h-34.4V118
					H676v78.1h-40.8c0.8-0.3,1.7-0.6,2.5-1c4.6-2.1,8.2-5.3,10.8-9.5c2.6-4.2,3.9-9.4,3.9-15.5V118h-17.2v52.1
					c0,3.4-0.5,6.2-1.6,8.3c-1,2.1-2.6,3.7-4.5,4.7c-2,1-4.4,1.5-7.3,1.5c-2.8,0-5.3-0.5-7.3-1.5s-3.6-2.6-4.6-4.7
					c-1.1-2.1-1.6-4.9-1.6-8.3V118h-17.2v52.1c0,6.1,1.3,11.3,3.9,15.5c2.6,4.2,6.2,7.4,10.8,9.5c0.8,0.4,1.6,0.7,2.5,1h-25.7
					L553.7,118h-4.3h-7.3h-4.2l-29.1,78.1h-23.5l27-78.1h-19l-17.4,58.7L458.6,118h-19l14.7,42.5l-26,15.8c-1-0.6-2.3-0.7-3.4,0
					c-1.5,0.9-2,2.9-1.1,4.4s2.9,2,4.4,1.1c1.1-0.7,1.6-1.8,1.5-3l25.5-15.5l11.3,32.8h-78.6v-12.6h-36.4v-20.3h30.9v-13.4h-30.9
					v-18h36.3V118h-36.3H346h-11.7v78.1H310V118h-17v51.1L262.2,118h-17.1v78.1h-25.3V118h-17.1v78.1h-37.3l17.2-78.1h-17
					l-10.2,54.9L142.8,118h-5.3h-3.8h-5.4l-12.4,54.9L105.6,118H88.5l1.7,7.7l-27.3,17.2c-1-0.6-2.3-0.7-3.4,0c-1.5,0.9-2,2.9-1,4.4
					c0.9,1.5,2.9,2,4.5,1c1.1-0.7,1.6-1.9,1.5-3l26.4-16.6l14.7,66.6l-1.3,0.9H83.2v2.8h17l-21.6,15c-1-0.6-2.4-0.6-3.4,0.2
					c-1.5,1-1.8,3-0.8,4.5s3,1.8,4.5,0.8c1-0.7,1.5-1.9,1.3-3.1l25-17.4h645.5L727,213.4c-1-0.6-2.3-0.7-3.4,0
					c-1.5,0.9-2,2.9-1.1,4.4s2.9,2,4.4,1.1c1.1-0.7,1.6-1.9,1.5-3l27.8-16.9h34.9v-2.9h-19.2v-64.3H796z M83.8,49.5
					c2-1.2,3.4-2.6,4.2-3.9L86.5,44c-1,0.5-2.6,1.6-4.3,4.3c-1,0.4-2.4,0.9-4.3,1.3c-7.8,1.9-18.5-0.4-31.9,2.9
					C30.9,56.1,23,69,23,79.1c0,8.8,6,15.7,18.2,12.7S58.1,80,58.1,71.7c0-1-0.1-2-0.2-3.1L54.4,70c0.1,1,0.2,1.9,0.2,3
					c0,7-3.5,14.6-13.4,17s-14.7-3.6-14.7-11.4c0-8.9,6.5-20.1,19.4-23.2s22.5-1.3,31.6-3.5c1.2-0.3,2.4-0.7,3.3-1.1
					c-2.4,4.7-4.9,12.6-6.5,26.4c-3.2,29-11.6,36.4-19.5,38.3c-7.1,1.7-10.2-1.8-10.2-6.1c0-3.5,2.4-7.3,5.5-8.1L49.9,98
					c-5,1.3-8.5,6.9-8.5,11.9c0,5.3,4,9.7,13.2,7.5c9.9-2.4,20.3-11.4,23.5-41.2C79.7,60,82.2,52.8,83.8,49.5 M93.6,48.2
					c0.5-0.1,0.8,0.2,0.8,1.2c-0.4,4.7-4.9,16.8-6.9,21.8C89.5,59.9,91.6,48.7,93.6,48.2 M112.2,63.3c0.7-0.2,1.2,0.4,1.2,1.3
					c0,2.3-2.3,7.1-7.5,11.2C107,69.9,109.6,63.9,112.2,63.3 M138.8,52.4c-18.5,4.5-21.1,33.8-29.3,35.8c-3,0.7-4.2-2.2-4.2-6.3
					c0-1.4,0.1-2.8,0.4-4.4c1-0.4,1.7-0.9,2.5-1.5c5.2-4,7.8-9,7.8-12.1c0-2.1-1.2-3.4-3.6-2.8c-4.7,1.1-8.5,8.7-9.7,15.8
					c-2.7,7.4-5.4,13.2-7.2,13.7c-0.9,0.2-1.5-0.4-1.5-2.2c0-4.9,4.3-14.9,4.3-19.9c0-2.5-1.4-3.4-3-3c-3.3,0.8-6.8,7.5-9.2,13.2
					l0.9-4c3.9-8.7,9.2-20.2,9.2-26.3c0-1.9-0.9-2.7-2.5-2.3c-1.4,0.3-3.2,1.5-4.2,4c-3.3,7.5-6,27.4-8.2,40c-0.5,2.3-0.9,5-0.9,6.1
					c0,0.1,0.1,0.2,0.1,0.3l3.1-0.8c0.4-2.4,0.7-4.7,1-7c2.5-10.9,7.2-20,9.4-20.5c0.7-0.2,1.1,0.3,1.1,1.7c0,3.8-4.4,14.3-4.4,19.8
					c0,3,1.5,4.2,3.5,3.7c3-0.8,5.7-6,8-11.9c0,0.1,0,0.2,0,0.3c0,5.3,1.9,9.3,6.6,8.1c12.8-3.1,13.4-31.8,29.9-35.9
					c6.9-1.7,10.3,2.5,10.3,7.7c0,6-4.4,13.4-13,15.5c-4.3,1-7.5,0.1-10-2.6l-1.9,2.3c0.1,0.1,0.2,0.2,0.3,0.3c0,0.1,0,0.1,0,0.1
					c2.2,3.9,1.6,8.6-0.7,13.4c-2.8,5.7-8.2,8.6-13.7,9.5c-9.3,1.6-16.9-3.6-26.2-1.5c-5.6,1.2-11.9,8.1-10.7,13.4
					c1.2,5.1,10.2,2.4,10.3-3.1c0-1.1-2.1,1.1-2.1,1.8c-0.7,1.3-1.7,1.8-3,1.6c-1.4,0.2-2.3-0.9-2.9-1.9c-1.9-3.4,2-7.5,5.5-9
					c4.3-1.8,9-0.4,12.8,0.4c5.8,1.2,11.9,1.9,18.4-0.2c8.5-2.7,17.1-14.6,15.5-22.7c2.2,0.8,4.8,1,8.2,0.2
					c10.5-2.5,16-11.4,16-18.4C152,55,147.8,50.2,138.8,52.4 M181.1,37.1c-2.3-0.3-5.3,0.5-6.9,3c-1.3,2-1.8,5.2,1.1,4.7
					c0.8-0.1,2.2-2.5,1.6-2.4c-3.1,0.5-1-2.6,1.2-2.9c1.9-0.3,3.1,0.8,3.7,2.4c1.8,4.6-4,9.4-8.4,10.3c-6.5,1.3-12.1-2.4-17.2-4.5
					c-9.7-4-23-0.4-30.7,10.7c-0.9,1.4,0.4,0.7,1-0.1c4.1-5.7,10-8.4,16-9.8c5.5-1.2,10.1,0.7,14.3,2.8c5.5,2.7,13.8,6.7,20.9,0.9
					c2.7-2.2,4.9-4.9,6-8.1C184.5,41.3,184,37.5,181.1,37.1"/>
			</g>
		</g>
	</g>
</g>
</svg>
